<?xml version="1.0" standalone="no"?>
<!DOCTYPE svg PUBLIC "-//W3C//DTD SVG 20010904//EN"
 "http://www.w3.org/TR/2001/REC-SVG-20010904/DTD/svg10.dtd">
<svg version="1.0" xmlns="http://www.w3.org/2000/svg"
 width="2500.000000pt" height="1875.000000pt" viewBox="0 0 2500.000000 1875.000000"
 preserveAspectRatio="xMidYMid meet">

<g transform="translate(0.000000,1875.000000) scale(0.100000,-0.100000)"
fill="#000000" stroke="none">
<path d="M530 9510 l0 -2850 328 2 327 3 3 2848 2 2847 -330 0 -330 0 0 -2850z"/>
<path d="M7865 10854 c-367 -57 -675 -211 -925 -463 -321 -323 -514 -766 -587
-1342 -21 -169 -24 -613 -4 -774 128 -1074 731 -1722 1660 -1785 150 -10 361
1 500 25 634 110 1074 518 1237 1145 28 108 64 317 64 373 l0 37 -325 0 -325
0 -6 -27 c-3 -16 -18 -80 -34 -144 -102 -422 -332 -687 -675 -779 -113 -30
-364 -38 -491 -16 -501 87 -824 495 -921 1161 -21 151 -25 578 -5 735 91 731
412 1167 926 1256 124 22 359 15 468 -15 257 -68 436 -207 557 -433 47 -86
104 -254 122 -355 l12 -73 329 0 c180 0 328 1 328 3 0 1 -7 58 -15 127 -65
522 -247 843 -617 1087 -205 135 -436 219 -709 258 -131 19 -441 18 -564 -1z"/>
<path d="M11863 10854 c-572 -69 -1007 -327 -1179 -699 -63 -136 -102 -317
-117 -537 l-5 -68 328 0 328 0 7 43 c59 368 248 570 610 649 119 26 412 35
566 18 329 -36 545 -156 640 -354 44 -92 51 -148 47 -355 -3 -180 -4 -188 -31
-243 -77 -158 -241 -218 -787 -288 -606 -78 -833 -118 -1025 -181 -462 -149
-744 -435 -831 -842 -26 -121 -35 -299 -23 -431 57 -633 495 -1025 1200 -1075
536 -38 979 122 1444 523 l80 69 8 -39 c29 -140 43 -188 77 -260 99 -207 278
-296 595 -296 136 0 218 11 390 54 l50 13 3 240 2 241 -127 0 c-106 0 -137 3
-179 21 -80 32 -120 68 -156 141 l-33 67 -5 1350 -5 1350 -24 83 c-132 475
-496 731 -1148 807 -159 19 -544 18 -700 -1z m1227 -2597 c0 -471 -1 -484 -67
-611 -45 -86 -217 -263 -334 -343 -269 -184 -584 -266 -929 -242 -299 21 -520
140 -623 336 -82 156 -96 371 -36 552 61 182 230 322 496 411 142 47 283 75
630 125 465 67 658 109 807 175 23 10 44 19 49 19 4 1 7 -189 7 -422z"/>
<path d="M18215 10855 c-600 -106 -1055 -546 -1286 -1245 -98 -300 -142 -597
-142 -975 0 -349 28 -568 107 -842 124 -431 408 -834 750 -1064 248 -167 487
-241 781 -241 461 1 794 193 1119 646 l56 78 0 -228 c0 -610 -99 -988 -315
-1209 -173 -176 -377 -250 -720 -262 -276 -9 -462 23 -625 107 -98 52 -168
114 -229 205 -56 84 -84 152 -113 278 l-21 87 -329 0 -330 0 7 -67 c37 -353
242 -689 540 -888 384 -255 944 -338 1510 -224 760 154 1151 637 1255 1550 35
306 40 595 40 2422 l0 1777 -300 0 -300 0 0 -297 c-1 -283 -2 -297 -18 -276
-9 11 -46 61 -82 109 -84 115 -233 265 -339 343 -132 97 -290 168 -461 206
-104 23 -444 29 -555 10z m485 -596 c182 -29 353 -115 486 -244 202 -197 330
-494 391 -910 26 -175 26 -711 0 -875 -105 -668 -405 -1054 -880 -1130 -112
-18 -340 -8 -437 20 -340 97 -584 376 -704 807 -113 405 -123 983 -24 1408 44
192 115 367 204 502 147 226 348 367 594 418 79 16 282 19 370 4z"/>
<path d="M22545 10854 c-201 -36 -405 -118 -574 -232 -110 -74 -294 -251 -380
-366 -259 -346 -411 -779 -461 -1311 -13 -141 -13 -477 0 -625 38 -419 151
-771 340 -1060 305 -465 712 -732 1168 -769 144 -12 323 2 448 34 124 32 297
116 400 193 108 82 273 254 369 386 l80 109 3 -119 c4 -153 -14 -488 -33 -623
-88 -607 -348 -891 -868 -952 -143 -16 -426 -6 -539 20 -165 38 -282 98 -376
193 -99 101 -160 220 -191 375 l-16 83 -333 0 -333 0 7 -52 c64 -523 393 -911
917 -1083 358 -117 825 -125 1232 -20 627 161 976 550 1115 1242 77 385 80
489 80 2626 l0 1857 -300 0 -300 0 -2 -295 -3 -296 -65 92 c-84 120 -241 283
-349 365 -157 118 -338 196 -530 228 -119 20 -393 20 -506 0z m510 -599 c101
-18 213 -59 305 -112 80 -47 241 -205 299 -293 133 -205 226 -501 262 -840 16
-147 16 -554 0 -690 -71 -604 -304 -1005 -677 -1160 -132 -55 -244 -73 -419
-67 -171 6 -238 20 -363 78 -373 172 -594 581 -652 1204 -13 143 -13 469 1
615 67 728 384 1187 877 1270 81 13 275 11 367 -5z"/>
<path d="M2252 9083 l3 -1678 27 -100 c33 -120 108 -276 176 -365 242 -319
690 -484 1228 -450 305 20 534 94 754 243 95 65 315 283 409 405 l71 94 0
-286 0 -286 293 2 292 3 0 2045 0 2045 -322 3 -323 2 0 -1178 c0 -1241 -3
-1350 -45 -1558 -68 -339 -232 -616 -461 -780 -344 -247 -879 -251 -1186 -9
-76 59 -140 141 -188 240 -81 167 -74 14 -80 1740 l-5 1540 -323 3 -322 2 2
-1677z"/>
<path d="M15025 7468 c-3 -7 -4 -191 -3 -408 l3 -395 405 0 405 0 0 405 0 405
-403 3 c-317 2 -404 0 -407 -10z"/>
</g>
</svg>
